<svg width="157" height="29" viewBox="0 0 157 29" fill="none" xmlns="http://www.w3.org/2000/svg">
<path d="M0.88 9.82C1.648 9.628 2.656 9.424 3.904 9.208C5.176 8.992 6.64 8.884 8.296 8.884C9.496 8.884 10.504 9.052 11.32 9.388C12.136 9.7 12.82 10.168 13.372 10.792C13.54 10.672 13.804 10.504 14.164 10.288C14.524 10.072 14.968 9.868 15.496 9.676C16.024 9.46 16.612 9.28 17.26 9.136C17.908 8.968 18.604 8.884 19.348 8.884C20.788 8.884 21.964 9.1 22.876 9.532C23.788 9.94 24.496 10.528 25 11.296C25.528 12.064 25.876 12.976 26.044 14.032C26.236 15.088 26.332 16.24 26.332 17.488V28H22.984V18.208C22.984 17.104 22.924 16.156 22.804 15.364C22.708 14.572 22.504 13.912 22.192 13.384C21.904 12.856 21.496 12.472 20.968 12.232C20.464 11.968 19.804 11.836 18.988 11.836C17.86 11.836 16.924 11.992 16.18 12.304C15.46 12.592 14.968 12.856 14.704 13.096C14.896 13.72 15.04 14.404 15.136 15.148C15.232 15.892 15.28 16.672 15.28 17.488V28H11.932V18.208C11.932 17.104 11.872 16.156 11.752 15.364C11.632 14.572 11.416 13.912 11.104 13.384C10.816 12.856 10.408 12.472 9.88 12.232C9.376 11.968 8.728 11.836 7.936 11.836C7.6 11.836 7.24 11.848 6.856 11.872C6.472 11.896 6.1 11.932 5.74 11.98C5.404 12.004 5.092 12.04 4.804 12.088C4.516 12.136 4.324 12.172 4.228 12.196V28H0.88V9.82ZM38.2238 25.588C39.0158 25.588 39.7118 25.576 40.3118 25.552C40.9358 25.504 41.4518 25.432 41.8598 25.336V19.756C41.6198 19.636 41.2238 19.54 40.6718 19.468C40.1438 19.372 39.4958 19.324 38.7278 19.324C38.2238 19.324 37.6838 19.36 37.1078 19.432C36.5558 19.504 36.0398 19.66 35.5598 19.9C35.1038 20.116 34.7198 20.428 34.4078 20.836C34.0958 21.22 33.9398 21.736 33.9398 22.384C33.9398 23.584 34.3238 24.424 35.0918 24.904C35.8598 25.36 36.9038 25.588 38.2238 25.588ZM37.9358 8.812C39.2798 8.812 40.4078 8.992 41.3198 9.352C42.2558 9.688 42.9998 10.18 43.5518 10.828C44.1278 11.452 44.5358 12.208 44.7758 13.096C45.0158 13.96 45.1358 14.92 45.1358 15.976V27.676C44.8478 27.724 44.4398 27.796 43.9118 27.892C43.4078 27.964 42.8318 28.036 42.1838 28.108C41.5358 28.18 40.8278 28.24 40.0598 28.288C39.3158 28.36 38.5718 28.396 37.8278 28.396C36.7718 28.396 35.7998 28.288 34.9118 28.072C34.0238 27.856 33.2558 27.52 32.6078 27.064C31.9598 26.584 31.4558 25.96 31.0958 25.192C30.7358 24.424 30.5558 23.5 30.5558 22.42C30.5558 21.388 30.7598 20.5 31.1678 19.756C31.5998 19.012 32.1758 18.412 32.8958 17.956C33.6158 17.5 34.4558 17.164 35.4158 16.948C36.3758 16.732 37.3838 16.624 38.4398 16.624C38.7758 16.624 39.1238 16.648 39.4838 16.696C39.8438 16.72 40.1798 16.768 40.4918 16.84C40.8278 16.888 41.1158 16.936 41.3558 16.984C41.5958 17.032 41.7638 17.068 41.8598 17.092V16.156C41.8598 15.604 41.7998 15.064 41.6798 14.536C41.5598 13.984 41.3438 13.504 41.0318 13.096C40.7198 12.664 40.2878 12.328 39.7358 12.088C39.2078 11.824 38.5118 11.692 37.6478 11.692C36.5438 11.692 35.5718 11.776 34.7318 11.944C33.9158 12.088 33.3038 12.244 32.8958 12.412L32.4998 9.64C32.9318 9.448 33.6518 9.268 34.6598 9.1C35.6678 8.908 36.7598 8.812 37.9358 8.812ZM50.6964 9.82C51.4644 9.628 52.4724 9.424 53.7204 9.208C54.9924 8.992 56.4564 8.884 58.1124 8.884C59.3124 8.884 60.3204 9.052 61.1364 9.388C61.9524 9.7 62.6364 10.168 63.1884 10.792C63.3564 10.672 63.6204 10.504 63.9804 10.288C64.3404 10.072 64.7844 9.868 65.3124 9.676C65.8404 9.46 66.4284 9.28 67.0764 9.136C67.7244 8.968 68.4204 8.884 69.1644 8.884C70.6044 8.884 71.7804 9.1 72.6924 9.532C73.6044 9.94 74.3124 10.528 74.8164 11.296C75.3444 12.064 75.6924 12.976 75.8604 14.032C76.0524 15.088 76.1484 16.24 76.1484 17.488V28H72.8004V18.208C72.8004 17.104 72.7404 16.156 72.6204 15.364C72.5244 14.572 72.3204 13.912 72.0084 13.384C71.7204 12.856 71.3124 12.472 70.7844 12.232C70.2804 11.968 69.6204 11.836 68.8044 11.836C67.6764 11.836 66.7404 11.992 65.9964 12.304C65.2764 12.592 64.7844 12.856 64.5204 13.096C64.7124 13.72 64.8564 14.404 64.9524 15.148C65.0484 15.892 65.0964 16.672 65.0964 17.488V28H61.7484V18.208C61.7484 17.104 61.6884 16.156 61.5684 15.364C61.4484 14.572 61.2324 13.912 60.9204 13.384C60.6324 12.856 60.2244 12.472 59.6964 12.232C59.1924 11.968 58.5444 11.836 57.7524 11.836C57.4164 11.836 57.0564 11.848 56.6724 11.872C56.2884 11.896 55.9164 11.932 55.5564 11.98C55.2204 12.004 54.9084 12.04 54.6204 12.088C54.3324 12.136 54.1404 12.172 54.0444 12.196V28H50.6964V9.82ZM85.0522 10.108C85.4602 9.844 86.0722 9.568 86.8882 9.28C87.7282 8.992 88.6882 8.848 89.7682 8.848C91.1122 8.848 92.3002 9.088 93.3322 9.568C94.3882 10.048 95.2762 10.72 95.9962 11.584C96.7162 12.448 97.2562 13.48 97.6162 14.68C98.0002 15.88 98.1922 17.2 98.1922 18.64C98.1922 20.152 97.9642 21.52 97.5082 22.744C97.0762 23.944 96.4522 24.964 95.6362 25.804C94.8202 26.644 93.8362 27.292 92.6842 27.748C91.5322 28.204 90.2362 28.432 88.7962 28.432C87.2362 28.432 85.8562 28.324 84.6562 28.108C83.4562 27.892 82.4722 27.676 81.7042 27.46V0.639998L85.0522 0.0639992V10.108ZM85.0522 25.084C85.3882 25.18 85.8562 25.276 86.4562 25.372C87.0802 25.444 87.8482 25.48 88.7602 25.48C90.5602 25.48 92.0002 24.892 93.0802 23.716C94.1602 22.516 94.7002 20.824 94.7002 18.64C94.7002 17.68 94.6042 16.78 94.4122 15.94C94.2202 15.1 93.9082 14.38 93.4762 13.78C93.0442 13.156 92.4802 12.676 91.7842 12.34C91.1122 11.98 90.2962 11.8 89.3362 11.8C88.4242 11.8 87.5842 11.956 86.8162 12.268C86.0482 12.58 85.4602 12.904 85.0522 13.24V25.084ZM109.239 25.588C110.031 25.588 110.727 25.576 111.327 25.552C111.951 25.504 112.467 25.432 112.875 25.336V19.756C112.635 19.636 112.239 19.54 111.687 19.468C111.159 19.372 110.511 19.324 109.743 19.324C109.239 19.324 108.699 19.36 108.123 19.432C107.571 19.504 107.055 19.66 106.575 19.9C106.119 20.116 105.735 20.428 105.423 20.836C105.111 21.22 104.955 21.736 104.955 22.384C104.955 23.584 105.339 24.424 106.107 24.904C106.875 25.36 107.919 25.588 109.239 25.588ZM108.951 8.812C110.295 8.812 111.423 8.992 112.335 9.352C113.271 9.688 114.015 10.18 114.567 10.828C115.143 11.452 115.551 12.208 115.791 13.096C116.031 13.96 116.151 14.92 116.151 15.976V27.676C115.863 27.724 115.455 27.796 114.927 27.892C114.423 27.964 113.847 28.036 113.199 28.108C112.551 28.18 111.843 28.24 111.075 28.288C110.331 28.36 109.587 28.396 108.843 28.396C107.787 28.396 106.815 28.288 105.927 28.072C105.039 27.856 104.271 27.52 103.623 27.064C102.975 26.584 102.471 25.96 102.111 25.192C101.751 24.424 101.571 23.5 101.571 22.42C101.571 21.388 101.775 20.5 102.183 19.756C102.615 19.012 103.191 18.412 103.911 17.956C104.631 17.5 105.471 17.164 106.431 16.948C107.391 16.732 108.399 16.624 109.455 16.624C109.791 16.624 110.139 16.648 110.499 16.696C110.859 16.72 111.195 16.768 111.507 16.84C111.843 16.888 112.131 16.936 112.371 16.984C112.611 17.032 112.779 17.068 112.875 17.092V16.156C112.875 15.604 112.815 15.064 112.695 14.536C112.575 13.984 112.359 13.504 112.047 13.096C111.735 12.664 111.303 12.328 110.751 12.088C110.223 11.824 109.527 11.692 108.663 11.692C107.559 11.692 106.587 11.776 105.747 11.944C104.931 12.088 104.319 12.244 103.911 12.412L103.515 9.64C103.947 9.448 104.667 9.268 105.675 9.1C106.683 8.908 107.775 8.812 108.951 8.812ZM125.672 26.056C125.672 26.704 125.456 27.268 125.024 27.748C124.592 28.228 124.004 28.468 123.26 28.468C122.516 28.468 121.928 28.228 121.496 27.748C121.064 27.268 120.848 26.704 120.848 26.056C120.848 25.408 121.064 24.844 121.496 24.364C121.928 23.884 122.516 23.644 123.26 23.644C124.004 23.644 124.592 23.884 125.024 24.364C125.456 24.844 125.672 25.408 125.672 26.056ZM133.919 28H130.571V9.28H133.919V28ZM132.227 5.896C131.627 5.896 131.111 5.704 130.679 5.32C130.271 4.912 130.067 4.372 130.067 3.7C130.067 3.028 130.271 2.5 130.679 2.116C131.111 1.708 131.627 1.504 132.227 1.504C132.827 1.504 133.331 1.708 133.739 2.116C134.171 2.5 134.387 3.028 134.387 3.7C134.387 4.372 134.171 4.912 133.739 5.32C133.331 5.704 132.827 5.896 132.227 5.896ZM156.201 18.64C156.201 20.128 155.985 21.472 155.553 22.672C155.121 23.872 154.509 24.904 153.717 25.768C152.949 26.632 152.025 27.304 150.945 27.784C149.865 28.24 148.689 28.468 147.417 28.468C146.145 28.468 144.969 28.24 143.889 27.784C142.809 27.304 141.873 26.632 141.081 25.768C140.313 24.904 139.713 23.872 139.281 22.672C138.849 21.472 138.633 20.128 138.633 18.64C138.633 17.176 138.849 15.844 139.281 14.644C139.713 13.42 140.313 12.376 141.081 11.512C141.873 10.648 142.809 9.988 143.889 9.532C144.969 9.052 146.145 8.812 147.417 8.812C148.689 8.812 149.865 9.052 150.945 9.532C152.025 9.988 152.949 10.648 153.717 11.512C154.509 12.376 155.121 13.42 155.553 14.644C155.985 15.844 156.201 17.176 156.201 18.64ZM152.709 18.64C152.709 16.528 152.229 14.86 151.269 13.636C150.333 12.388 149.049 11.764 147.417 11.764C145.785 11.764 144.489 12.388 143.529 13.636C142.593 14.86 142.125 16.528 142.125 18.64C142.125 20.752 142.593 22.432 143.529 23.68C144.489 24.904 145.785 25.516 147.417 25.516C149.049 25.516 150.333 24.904 151.269 23.68C152.229 22.432 152.709 20.752 152.709 18.64Z" fill="black"/>
</svg>
