<svg width="157" height="15" viewBox="0 0 157 15" fill="none" xmlns="http://www.w3.org/2000/svg">
<path d="M4.22 7.349C4.724 7.349 5.168 7.289 5.552 7.169C5.942 7.043 6.266 6.869 6.524 6.647C6.788 6.419 6.986 6.149 7.118 5.837C7.25 5.525 7.316 5.18 7.316 4.802C7.316 4.034 7.064 3.455 6.56 3.065C6.056 2.675 5.3 2.48 4.292 2.48H2.384V7.349H4.22ZM10.178 14H8.63C8.312 14 8.078 13.877 7.928 13.631L4.58 9.023C4.478 8.879 4.367 8.777 4.247 8.717C4.133 8.651 3.953 8.618 3.707 8.618H2.384V14H0.647V1.103H4.292C5.108 1.103 5.813 1.187 6.407 1.355C7.001 1.517 7.49 1.754 7.874 2.066C8.264 2.378 8.552 2.756 8.738 3.2C8.924 3.638 9.017 4.13 9.017 4.676C9.017 5.132 8.945 5.558 8.801 5.954C8.657 6.35 8.447 6.707 8.171 7.025C7.901 7.337 7.568 7.604 7.172 7.826C6.782 8.048 6.338 8.216 5.84 8.33C6.062 8.456 6.254 8.639 6.416 8.879L10.178 14ZM25.8282 12.578L25.8192 14H17.8722V1.103H25.8192V2.525H19.6182V6.809H24.6402V8.177H19.6182V12.578H25.8282ZM42.9736 11.336C43.0696 11.336 43.1536 11.375 43.2256 11.453L43.9186 12.2C43.3906 12.812 42.7486 13.289 41.9926 13.631C41.2426 13.973 40.3336 14.144 39.2656 14.144C38.3416 14.144 37.5016 13.985 36.7456 13.667C35.9896 13.343 35.3446 12.893 34.8106 12.317C34.2766 11.735 33.8626 11.039 33.5686 10.229C33.2746 9.419 33.1276 8.528 33.1276 7.556C33.1276 6.584 33.2806 5.693 33.5866 4.883C33.8926 4.073 34.3216 3.377 34.8736 2.795C35.4316 2.213 36.0976 1.763 36.8716 1.445C37.6456 1.121 38.5006 0.958999 39.4366 0.958999C40.3546 0.958999 41.1646 1.106 41.8666 1.4C42.5686 1.694 43.1866 2.093 43.7206 2.597L43.1446 3.398C43.1086 3.458 43.0606 3.509 43.0006 3.551C42.9466 3.587 42.8716 3.605 42.7756 3.605C42.6676 3.605 42.5356 3.548 42.3796 3.434C42.2236 3.314 42.0196 3.182 41.7676 3.038C41.5156 2.894 41.2006 2.765 40.8226 2.651C40.4446 2.531 39.9796 2.471 39.4276 2.471C38.7616 2.471 38.1526 2.588 37.6006 2.822C37.0486 3.05 36.5716 3.383 36.1696 3.821C35.7736 4.259 35.4646 4.793 35.2426 5.423C35.0206 6.053 34.9096 6.764 34.9096 7.556C34.9096 8.36 35.0236 9.077 35.2516 9.707C35.4856 10.337 35.8006 10.871 36.1966 11.309C36.5986 11.741 37.0696 12.071 37.6096 12.299C38.1556 12.527 38.7436 12.641 39.3736 12.641C39.7576 12.641 40.1026 12.62 40.4086 12.578C40.7206 12.53 41.0056 12.458 41.2636 12.362C41.5276 12.266 41.7706 12.146 41.9926 12.002C42.2206 11.852 42.4456 11.675 42.6676 11.471C42.7696 11.381 42.8716 11.336 42.9736 11.336ZM55.456 7.349C55.96 7.349 56.404 7.289 56.788 7.169C57.178 7.043 57.502 6.869 57.76 6.647C58.024 6.419 58.222 6.149 58.354 5.837C58.486 5.525 58.552 5.18 58.552 4.802C58.552 4.034 58.3 3.455 57.796 3.065C57.292 2.675 56.536 2.48 55.528 2.48H53.62V7.349H55.456ZM61.414 14H59.866C59.548 14 59.314 13.877 59.164 13.631L55.816 9.023C55.714 8.879 55.603 8.777 55.483 8.717C55.369 8.651 55.189 8.618 54.943 8.618H53.62V14H51.883V1.103H55.528C56.344 1.103 57.049 1.187 57.643 1.355C58.237 1.517 58.726 1.754 59.11 2.066C59.5 2.378 59.788 2.756 59.974 3.2C60.16 3.638 60.253 4.13 60.253 4.676C60.253 5.132 60.181 5.558 60.037 5.954C59.893 6.35 59.683 6.707 59.407 7.025C59.137 7.337 58.804 7.604 58.408 7.826C58.018 8.048 57.574 8.216 57.076 8.33C57.298 8.456 57.49 8.639 57.652 8.879L61.414 14ZM74.0149 12.614C74.5489 12.614 75.0259 12.524 75.4459 12.344C75.8659 12.164 76.2199 11.912 76.5079 11.588C76.8019 11.264 77.0239 10.877 77.1739 10.427C77.3299 9.977 77.4079 9.482 77.4079 8.942V1.103H79.1449V8.942C79.1449 9.686 79.0249 10.376 78.7849 11.012C78.5509 11.648 78.2119 12.2 77.7679 12.668C77.3299 13.13 76.7929 13.493 76.1569 13.757C75.5209 14.021 74.8069 14.153 74.0149 14.153C73.2229 14.153 72.5089 14.021 71.8729 13.757C71.2369 13.493 70.6969 13.13 70.2529 12.668C69.8089 12.2 69.4669 11.648 69.2269 11.012C68.9929 10.376 68.8759 9.686 68.8759 8.942V1.103H70.6129V8.933C70.6129 9.473 70.6879 9.968 70.8379 10.418C70.9939 10.868 71.2159 11.255 71.5039 11.579C71.7979 11.903 72.1549 12.158 72.5749 12.344C73.0009 12.524 73.4809 12.614 74.0149 12.614ZM89.9602 14H88.2142V1.103H89.9602V14ZM107.92 2.57H103.744V14H102.007V2.57H97.8221V1.103H107.92V2.57ZM117.52 14H115.774V1.103H117.52V14ZM137.208 1.103V14H136.335C136.197 14 136.08 13.976 135.984 13.928C135.894 13.88 135.804 13.799 135.714 13.685L128.253 3.965C128.265 4.115 128.274 4.262 128.28 4.406C128.286 4.55 128.289 4.685 128.289 4.811V14H126.759V1.103H127.659C127.737 1.103 127.803 1.109 127.857 1.121C127.911 1.127 127.959 1.142 128.001 1.166C128.043 1.184 128.085 1.214 128.127 1.256C128.169 1.292 128.214 1.34 128.262 1.4L135.723 11.111C135.711 10.955 135.699 10.805 135.687 10.661C135.681 10.511 135.678 10.37 135.678 10.238V1.103H137.208ZM156.921 7.799V12.749C156.273 13.217 155.58 13.568 154.842 13.802C154.11 14.03 153.306 14.144 152.43 14.144C151.392 14.144 150.456 13.985 149.622 13.667C148.788 13.343 148.074 12.893 147.48 12.317C146.892 11.735 146.439 11.039 146.121 10.229C145.803 9.419 145.644 8.528 145.644 7.556C145.644 6.572 145.797 5.675 146.103 4.865C146.415 4.055 146.856 3.362 147.426 2.786C147.996 2.204 148.689 1.754 149.505 1.436C150.321 1.118 151.233 0.958999 152.241 0.958999C152.751 0.958999 153.225 0.997999 153.663 1.076C154.101 1.148 154.506 1.256 154.878 1.4C155.25 1.538 155.595 1.709 155.913 1.913C156.231 2.111 156.528 2.336 156.804 2.588L156.309 3.38C156.231 3.5 156.129 3.578 156.003 3.614C155.883 3.644 155.748 3.614 155.598 3.524C155.454 3.44 155.289 3.338 155.103 3.218C154.917 3.098 154.689 2.984 154.419 2.876C154.155 2.762 153.84 2.666 153.474 2.588C153.114 2.51 152.685 2.471 152.187 2.471C151.461 2.471 150.804 2.591 150.216 2.831C149.628 3.065 149.127 3.404 148.713 3.848C148.299 4.286 147.981 4.82 147.759 5.45C147.537 6.074 147.426 6.776 147.426 7.556C147.426 8.366 147.54 9.092 147.768 9.734C148.002 10.37 148.332 10.913 148.758 11.363C149.19 11.807 149.712 12.146 150.324 12.38C150.936 12.614 151.623 12.731 152.385 12.731C152.985 12.731 153.516 12.665 153.978 12.533C154.446 12.395 154.902 12.206 155.346 11.966V9.131H153.339C153.225 9.131 153.132 9.098 153.06 9.032C152.994 8.966 152.961 8.885 152.961 8.789V7.799H156.921Z" fill="#C4C4C4"/>
</svg>
